<svg width="178" height="40" viewBox="0 0 178 40" fill="none" xmlns="http://www.w3.org/2000/svg">
<path d="M170.729 29.6038H167.03V10.6341H170.729V29.6038Z" fill="#212529"/>
<path d="M164.871 12.2193C164.871 13.461 163.867 14.3857 162.414 14.3857C160.988 14.3857 159.984 13.461 159.984 12.2193C159.984 10.9247 160.988 10 162.414 10C163.867 10 164.871 10.9247 164.871 12.2193ZM164.29 29.6037H160.618V15.4954H164.29V29.6037Z" fill="#212529"/>
<path d="M154.996 29.6037V27.86C154.071 29.181 152.671 29.8679 150.742 29.8679C147.81 29.8679 145.855 28.1506 145.855 25.5086C145.855 22.7609 148.074 21.2814 152.196 21.2814C152.988 21.2814 153.675 21.3342 154.547 21.4399V20.5944C154.547 19.0092 153.649 18.0845 152.116 18.0845C150.531 18.0845 149.58 19.0092 149.448 20.5944H146.145C146.357 17.3448 148.708 15.2311 152.116 15.2311C155.815 15.2311 157.982 17.2655 157.982 20.7265V29.6037H154.996ZM149.316 25.4029C149.316 26.5918 150.161 27.3316 151.535 27.3316C153.411 27.3316 154.547 26.3012 154.547 24.6631V23.6592C153.675 23.5271 153.067 23.4742 152.433 23.4742C150.346 23.4742 149.316 24.1347 149.316 25.4029Z" fill="#212529"/>
<path d="M131.542 29.6038L126.575 17.0013V29.6038H122.929V10.6341H127.738L133.233 24.6896L138.755 10.6341H143.563V29.6038H139.917V16.8957L134.897 29.6038H131.542Z" fill="#212529"/>
<path d="M100.788 22.5496C100.788 18.3752 103.245 15.2312 107.049 15.2312C108.74 15.2312 110.167 15.971 111.224 17.3184V10.6341H114.869V29.6038H111.514V27.5694C110.404 29.0489 108.872 29.868 107.049 29.868C103.245 29.868 100.788 26.6711 100.788 22.5496ZM104.566 22.5496C104.566 25.1916 106.072 26.5919 107.868 26.5919C109.691 26.5919 111.197 25.1652 111.197 22.4967C111.197 19.8283 109.665 18.4809 107.868 18.4809C106.072 18.4809 104.566 19.8547 104.566 22.5496Z" fill="#212529"/>
<path d="M92.7373 29.8679C88.6421 29.8679 85.5774 26.6446 85.5774 22.5495C85.5774 18.428 88.6421 15.2311 92.7373 15.2311C96.8324 15.2311 99.8971 18.428 99.8971 22.5495C99.8971 26.6446 96.8324 29.8679 92.7373 29.8679ZM92.7373 26.6182C94.5602 26.6182 96.119 25.1651 96.119 22.5495C96.119 19.9339 94.5602 18.5072 92.7373 18.5072C90.9143 18.5072 89.3555 19.9339 89.3555 22.5495C89.3555 25.1651 90.9143 26.6182 92.7373 26.6182Z" fill="#212529"/>
<path d="M77.5271 29.8679C73.432 29.8679 70.3672 26.6446 70.3672 22.5495C70.3672 18.428 73.432 15.2311 77.5271 15.2311C81.6222 15.2311 84.687 18.428 84.687 22.5495C84.687 26.6446 81.6222 29.8679 77.5271 29.8679ZM77.5271 26.6182C79.3501 26.6182 80.9089 25.1651 80.9089 22.5495C80.9089 19.9339 79.3501 18.5072 77.5271 18.5072C75.7041 18.5072 74.1453 19.9339 74.1453 22.5495C74.1453 25.1651 75.7041 26.6182 77.5271 26.6182Z" fill="#212529"/>
<path d="M59.7755 30C54.2801 30 50 25.9049 50 20.0396C50 14.4385 54.0687 10.2377 59.6169 10.2377C64.4254 10.2377 67.86 13.0911 69.1018 17.2126H64.3726C63.7913 15.284 62.0476 13.8309 59.5113 13.8309C56.4465 13.8309 54.1215 16.0766 54.1215 20.1453C54.1215 23.7913 56.1559 26.5918 59.9604 26.5918C62.7609 26.5918 64.5311 24.9273 65.0595 22.5759H59.5641V19.3791H69.3395C69.5773 25.5614 65.8257 30 59.7755 30Z" fill="#212529"/>
<path d="M17.8495 21.828L4.50205 12.4848C3.76956 11.972 3.33331 11.1342 3.33331 10.24C3.33331 8.72676 4.56007 7.5 6.07336 7.5H33.9266C35.4399 7.5 36.6666 8.72676 36.6666 10.24C36.6666 11.1342 36.2304 11.972 35.4979 12.4848L22.1505 21.828C20.8593 22.7318 19.1407 22.7318 17.8495 21.828Z" fill="#748FFC"/>
<path d="M35.8333 30L24.7619 20M15.2381 20L4.1667 30M3.33331 11.6667L16.9415 21.1924C18.0435 21.9638 18.5944 22.3495 19.1938 22.4989C19.7231 22.6308 20.2768 22.6308 20.8062 22.4989C21.4055 22.3495 21.9565 21.9638 23.0584 21.1924L36.6666 11.6667M11.3333 33.3334H28.6666C31.4669 33.3334 32.867 33.3334 33.9366 32.7884C34.8774 32.309 35.6423 31.5441 36.1217 30.6033C36.6666 29.5337 36.6666 28.1336 36.6666 25.3334V14.6667C36.6666 11.8664 36.6666 10.4663 36.1217 9.39673C35.6423 8.45592 34.8774 7.69102 33.9366 7.21165C32.867 6.66669 31.4669 6.66669 28.6666 6.66669H11.3333C8.53305 6.66669 7.13292 6.66669 6.06336 7.21165C5.12255 7.69102 4.35765 8.45592 3.87828 9.39673C3.33331 10.4663 3.33331 11.8664 3.33331 14.6667V25.3334C3.33331 28.1336 3.33331 29.5337 3.87828 30.6033C4.35765 31.5441 5.12255 32.309 6.06336 32.7884C7.13292 33.3334 8.53305 33.3334 11.3333 33.3334Z" stroke="#3B5BDB" stroke-width="3.75" stroke-linecap="round" stroke-linejoin="round"/>
</svg>
